<svg width="16" height="16" viewBox="0 0 16 16" fill="none" xmlns="http://www.w3.org/2000/svg">
<path opacity="0.4" d="M7.99967 14.6668C11.6816 14.6668 14.6663 11.6821 14.6663 8.00016C14.6663 4.31826 11.6816 1.3335 7.99967 1.3335C4.31778 1.3335 1.33301 4.31826 1.33301 8.00016C1.33301 11.6821 4.31778 14.6668 7.99967 14.6668Z" fill="white"/>
<path d="M10.333 7.50029H6.87297L8.01964 6.35362C8.21297 6.16029 8.21297 5.84029 8.01964 5.64695C7.8263 5.45362 7.5063 5.45362 7.31297 5.64695L5.31297 7.64695C5.11964 7.84029 5.11964 8.16029 5.31297 8.35362L7.31297 10.3536C7.41297 10.4536 7.53964 10.5003 7.6663 10.5003C7.79297 10.5003 7.91964 10.4536 8.01964 10.3536C8.21297 10.1603 8.21297 9.84029 8.01964 9.64695L6.87297 8.50029H10.333C10.6063 8.50029 10.833 8.27362 10.833 8.00029C10.833 7.72695 10.6063 7.50029 10.333 7.50029Z" fill="white"/>
</svg>
