<svg width="124" height="124" viewBox="0 0 124 124" fill="none" xmlns="http://www.w3.org/2000/svg">
<path d="M98.1667 77.5C86.7483 77.5 77.5 86.7483 77.5 98.1667C77.5 102.042 78.5851 105.71 80.4968 108.81C84.0618 114.803 90.6233 118.833 98.1667 118.833C105.71 118.833 112.272 114.803 115.837 108.81C117.748 105.71 118.833 102.042 118.833 98.1667C118.833 86.7483 109.585 77.5 98.1667 77.5ZM108.862 95.945L97.8567 106.123C97.1333 106.795 96.1516 107.157 95.2216 107.157C94.24 107.157 93.2585 106.795 92.4835 106.02L87.3682 100.905C85.8699 99.4067 85.8699 96.9267 87.3682 95.4283C88.8665 93.93 91.3465 93.93 92.8448 95.4283L95.3251 97.9083L103.592 90.2617C105.142 88.815 107.622 88.9183 109.068 90.4683C110.515 92.0183 110.412 94.4467 108.862 95.945Z" fill="#2FAC66"/>
<path d="M113.667 38.9569V46.5002H10.334V38.9569C10.334 27.1252 19.9441 17.5669 31.7758 17.5669H92.2255C104.057 17.5669 113.667 27.1252 113.667 38.9569Z" fill="#2FAC66"/>
<path opacity="0.4" d="M10.334 46.5V85.0433C10.334 96.875 19.8924 106.433 31.7241 106.433H64.0674C67.0641 106.433 69.6473 103.902 69.389 100.905C68.6656 93 71.1974 84.4233 78.2241 77.6033C81.1174 74.7617 84.6824 72.5917 88.5574 71.3517C95.0157 69.285 101.267 69.5433 106.796 71.4033C110.154 72.54 113.667 70.1117 113.667 66.5467V46.5H10.334ZM41.334 89.125H31.0007C28.8823 89.125 27.1257 87.3683 27.1257 85.25C27.1257 83.1317 28.8823 81.375 31.0007 81.375H41.334C43.4523 81.375 45.209 83.1317 45.209 85.25C45.209 87.3683 43.4523 89.125 41.334 89.125Z" fill="#2FAC66"/>
<path d="M45.2083 85.25C45.2083 87.3683 43.4517 89.125 41.3333 89.125H31C28.8817 89.125 27.125 87.3683 27.125 85.25C27.125 83.1317 28.8817 81.375 31 81.375H41.3333C43.4517 81.375 45.2083 83.1317 45.2083 85.25Z" fill="#2FAC66"/>
</svg>
