<svg width="124" height="124" viewBox="0 0 124 124" fill="none" xmlns="http://www.w3.org/2000/svg">
<path d="M97.651 77.6548C86.2327 77.6548 76.9844 86.9031 76.9844 98.3215C76.9844 109.74 86.2327 118.988 97.651 118.988C109.069 118.988 118.318 109.74 118.318 98.3215C118.318 86.9031 109.069 77.6548 97.651 77.6548ZM105.918 106.846C105.143 107.621 104.161 107.983 103.179 107.983C102.197 107.983 101.216 107.621 100.441 106.846L97.7024 104.108L94.8608 106.95C94.0858 107.725 93.1043 108.086 92.1227 108.086C91.141 108.086 90.1592 107.725 89.3842 106.95C87.8859 105.451 87.8859 102.971 89.3842 101.473L92.2258 98.6315L89.4876 95.8931C87.9893 94.3948 87.9893 91.9148 89.4876 90.4165C90.986 88.9181 93.4659 88.9181 94.9643 90.4165L97.7024 93.1548L100.286 90.5715C101.784 89.0731 104.264 89.0731 105.762 90.5715C107.261 92.0698 107.261 94.5498 105.762 96.0481L103.179 98.6315L105.918 101.37C107.416 102.868 107.416 105.348 105.918 106.846Z" fill="#DC2626"/>
<path d="M113.667 38.9569V46.5002H10.334V38.9569C10.334 27.1252 19.9441 17.5669 31.7758 17.5669H92.2255C104.057 17.5669 113.667 27.1252 113.667 38.9569Z" fill="#DC2626"/>
<path opacity="0.4" d="M10.334 46.5V85.0433C10.334 96.875 19.8924 106.433 31.7241 106.433H64.0674C67.0641 106.433 69.6473 103.902 69.389 100.905C68.6656 93 71.1974 84.4233 78.2241 77.6033C81.1174 74.7617 84.6824 72.5917 88.5574 71.3517C95.0157 69.285 101.267 69.5433 106.796 71.4033C110.154 72.54 113.667 70.1117 113.667 66.5467V46.5H10.334ZM41.334 89.125H31.0007C28.8823 89.125 27.1257 87.3683 27.1257 85.25C27.1257 83.1317 28.8823 81.375 31.0007 81.375H41.334C43.4523 81.375 45.209 83.1317 45.209 85.25C45.209 87.3683 43.4523 89.125 41.334 89.125Z" fill="#DC2626"/>
<path d="M45.2083 85.25C45.2083 87.3683 43.4517 89.125 41.3333 89.125H31C28.8817 89.125 27.125 87.3683 27.125 85.25C27.125 83.1317 28.8817 81.375 31 81.375H41.3333C43.4517 81.375 45.2083 83.1317 45.2083 85.25Z" fill="#DC2626"/>
</svg>
