<svg width="18" height="18" viewBox="0 0 18 18" fill="none" xmlns="http://www.w3.org/2000/svg">
<path opacity="0.4" d="M9 16.5C13.1421 16.5 16.5 13.1421 16.5 9C16.5 4.85786 13.1421 1.5 9 1.5C4.85786 1.5 1.5 4.85786 1.5 9C1.5 13.1421 4.85786 16.5 9 16.5Z" fill="#DC2626"/>
<path d="M9.79502 9.00002L11.52 7.27502C11.7375 7.05752 11.7375 6.69752 11.52 6.48002C11.3025 6.26252 10.9425 6.26252 10.725 6.48002L9.00002 8.20502L7.27502 6.48002C7.05752 6.26252 6.69752 6.26252 6.48002 6.48002C6.26252 6.69752 6.26252 7.05752 6.48002 7.27502L8.20502 9.00002L6.48002 10.725C6.26252 10.9425 6.26252 11.3025 6.48002 11.52C6.59252 11.6325 6.73502 11.685 6.87752 11.685C7.02002 11.685 7.16252 11.6325 7.27502 11.52L9.00002 9.79502L10.725 11.52C10.8375 11.6325 10.98 11.685 11.1225 11.685C11.265 11.685 11.4075 11.6325 11.52 11.52C11.7375 11.3025 11.7375 10.9425 11.52 10.725L9.79502 9.00002Z" fill="#DC2626"/>
</svg>
