<svg width="28" height="28" viewBox="0 0 28 28" fill="none" xmlns="http://www.w3.org/2000/svg">
<path opacity="0.4" d="M22.4002 17.2434C21.3969 18.165 20.0668 18.6784 18.7018 18.6667H7.43184C2.6835 18.3284 2.67184 11.4334 7.43184 11.095H7.47851C4.22351 2.04171 17.9785 -1.56332 19.5535 7.93335C23.9519 8.49335 25.7369 14.3384 22.4002 17.2434Z" fill="#767676"/>
<path d="M21.875 24.4998C21.875 24.9782 21.4783 25.3748 21 25.3748H16.3333C16.275 25.3748 16.2283 25.3748 16.17 25.3515C15.8316 26.2148 14.98 26.8332 14 26.8332C13.02 26.8332 12.1684 26.2148 11.83 25.3515C11.7717 25.3748 11.725 25.3748 11.6667 25.3748H7C6.52167 25.3748 6.125 24.9782 6.125 24.4998C6.125 24.0215 6.52167 23.6248 7 23.6248H11.6667C11.725 23.6248 11.7717 23.6248 11.83 23.6482C12.0634 23.0415 12.5417 22.5632 13.1483 22.3299C13.125 22.2715 13.125 22.2248 13.125 22.1665V18.6665H14.875V22.1665C14.875 22.2248 14.875 22.2715 14.8517 22.3299C15.4583 22.5632 15.9366 23.0415 16.17 23.6482C16.2283 23.6248 16.275 23.6248 16.3333 23.6248H21C21.4783 23.6248 21.875 24.0215 21.875 24.4998Z" fill="#767676"/>
</svg>
