<svg width="28" height="28" viewBox="0 0 28 28" fill="none" xmlns="http://www.w3.org/2000/svg">
<path opacity="0.4" d="M14.0002 25.5501C20.4435 25.5501 25.6668 20.3268 25.6668 13.8835C25.6668 7.44014 20.4435 2.2168 14.0002 2.2168C7.55684 2.2168 2.3335 7.44014 2.3335 13.8835C2.3335 20.3268 7.55684 25.5501 14.0002 25.5501Z" fill="#767676"/>
<path d="M16.6369 14L14.8752 13.3817V9.42667H15.2952C16.2402 9.42667 17.0102 10.255 17.0102 11.27C17.0102 11.7483 17.4069 12.145 17.8852 12.145C18.3635 12.145 18.7602 11.7483 18.7602 11.27C18.7602 9.28667 17.2085 7.67667 15.2952 7.67667H14.8752V7C14.8752 6.52167 14.4785 6.125 14.0002 6.125C13.5219 6.125 13.1252 6.52167 13.1252 7V7.67667H12.3669C10.6402 7.67667 9.22852 9.135 9.22852 10.92C9.22852 13.0083 10.4418 13.6733 11.3635 14L13.1252 14.6183V18.5617H12.7052C11.7602 18.5617 10.9902 17.7333 10.9902 16.7183C10.9902 16.24 10.5935 15.8433 10.1152 15.8433C9.63685 15.8433 9.24018 16.24 9.24018 16.7183C9.24018 18.7017 10.7918 20.3117 12.7052 20.3117H13.1252V21C13.1252 21.4783 13.5219 21.875 14.0002 21.875C14.4785 21.875 14.8752 21.4783 14.8752 21V20.3233H15.6335C17.3602 20.3233 18.7719 18.865 18.7719 17.08C18.7602 14.98 17.5469 14.315 16.6369 14ZM11.9468 12.355C11.3518 12.145 10.9902 11.9467 10.9902 10.9317C10.9902 10.1033 11.6085 9.43833 12.3785 9.43833H13.1369V12.775L11.9468 12.355ZM15.6335 18.5733H14.8752V15.2367L16.0535 15.645C16.6485 15.855 17.0102 16.0533 17.0102 17.0683C17.0102 17.8967 16.3919 18.5733 15.6335 18.5733Z" fill="#767676"/>
</svg>
