<svg width="24" height="24" viewBox="0 0 24 24" fill="none" xmlns="http://www.w3.org/2000/svg">
<path opacity="0.4" d="M21 22H3C2.59 22 2.25 21.66 2.25 21.25C2.25 20.84 2.59 20.5 3 20.5H21C21.41 20.5 21.75 20.84 21.75 21.25C21.75 21.66 21.41 22 21 22Z" fill="#ABABAB"/>
<path opacity="0.4" d="M19.02 3.48162C17.08 1.54162 15.18 1.49162 13.19 3.48162L11.98 4.69162C11.88 4.79162 11.84 4.95162 11.88 5.09162C12.64 7.74162 14.76 9.86162 17.41 10.6216C17.45 10.6316 17.49 10.6416 17.53 10.6416C17.64 10.6416 17.74 10.6016 17.82 10.5216L19.02 9.31162C20.01 8.33162 20.49 7.38162 20.49 6.42162C20.5 5.43162 20.02 4.47162 19.02 3.48162Z" fill="#ABABAB"/>
<path d="M15.61 11.5308C15.32 11.3908 15.04 11.2508 14.77 11.0908C14.55 10.9608 14.34 10.8208 14.13 10.6708C13.96 10.5608 13.76 10.4008 13.57 10.2408C13.55 10.2308 13.48 10.1708 13.4 10.0908C13.07 9.81078 12.7 9.45078 12.37 9.05078C12.34 9.03078 12.29 8.96078 12.22 8.87078C12.12 8.75078 11.95 8.55078 11.8 8.32078C11.68 8.17078 11.54 7.95078 11.41 7.73078C11.25 7.46078 11.11 7.19078 10.97 6.91078C10.83 6.61078 10.72 6.32078 10.62 6.05078L4.33995 12.3308C4.20995 12.4608 4.08995 12.7108 4.05995 12.8808L3.51995 16.7108C3.41995 17.3908 3.60995 18.0308 4.02995 18.4608C4.38995 18.8108 4.88995 19.0008 5.42995 19.0008C5.54995 19.0008 5.66995 18.9908 5.78995 18.9708L9.62995 18.4308C9.80995 18.4008 10.06 18.2808 10.18 18.1508L16.46 11.8708C16.18 11.7708 15.91 11.6608 15.61 11.5308Z" fill="#ABABAB"/>
</svg>
