<svg width="18" height="18" viewBox="0 0 18 18" fill="none" xmlns="http://www.w3.org/2000/svg">
<path opacity="0.4" d="M17.5 6.39V2.985C17.5 1.9275 17.02 1.5 15.8275 1.5H12.7975C11.605 1.5 11.125 1.9275 11.125 2.985V6.3825C11.125 7.4475 11.605 7.8675 12.7975 7.8675H15.8275C17.02 7.875 17.5 7.4475 17.5 6.39Z" fill="#767676"/>
<path d="M17.5 14.8275V11.7975C17.5 10.605 17.02 10.125 15.8275 10.125H12.7975C11.605 10.125 11.125 10.605 11.125 11.7975V14.8275C11.125 16.02 11.605 16.5 12.7975 16.5H15.8275C17.02 16.5 17.5 16.02 17.5 14.8275Z" fill="#767676"/>
<path d="M8.875 6.39V2.985C8.875 1.9275 8.395 1.5 7.2025 1.5H4.1725C2.98 1.5 2.5 1.9275 2.5 2.985V6.3825C2.5 7.4475 2.98 7.8675 4.1725 7.8675H7.2025C8.395 7.875 8.875 7.4475 8.875 6.39Z" fill="#767676"/>
<path opacity="0.4" d="M8.875 14.8275V11.7975C8.875 10.605 8.395 10.125 7.2025 10.125H4.1725C2.98 10.125 2.5 10.605 2.5 11.7975V14.8275C2.5 16.02 2.98 16.5 4.1725 16.5H7.2025C8.395 16.5 8.875 16.02 8.875 14.8275Z" fill="#767676"/>
</svg>
