<svg width="14" height="14" viewBox="0 0 14 14" fill="none" xmlns="http://www.w3.org/2000/svg">
<path opacity="0.4" d="M10.5235 7.90408C10.2785 8.14324 10.1385 8.48741 10.1735 8.85491C10.226 9.48491 10.8035 9.94574 11.4335 9.94574H12.5418V10.6399C12.5418 11.8474 11.556 12.8333 10.3485 12.8333H3.65183C2.44433 12.8333 1.4585 11.8474 1.4585 10.6399V6.71409C1.4585 5.50659 2.44433 4.52075 3.65183 4.52075H10.3485C11.556 4.52075 12.5418 5.50659 12.5418 6.71409V7.55409H11.3635C11.0368 7.55409 10.7393 7.68241 10.5235 7.90408Z" fill="#F9B233"/>
<path d="M8.66266 2.30412V4.52078H3.65183C2.44433 4.52078 1.4585 5.50662 1.4585 6.71412V4.57329C1.4585 3.87913 1.88433 3.26077 2.53183 3.01577L7.1635 1.26577C7.88683 0.997433 8.66266 1.52828 8.66266 2.30412Z" fill="#F9B233"/>
<path d="M13.16 8.14918V9.35088C13.16 9.67171 12.9033 9.93419 12.5766 9.94585H11.4333C10.8033 9.94585 10.2258 9.48502 10.1733 8.85502C10.1383 8.48752 10.2783 8.14335 10.5233 7.90418C10.7391 7.68252 11.0366 7.5542 11.3633 7.5542H12.5766C12.9033 7.56587 13.16 7.82834 13.16 8.14918Z" fill="#F9B233"/>
<path d="M8.16683 7.4375H4.0835C3.84433 7.4375 3.646 7.23917 3.646 7C3.646 6.76083 3.84433 6.5625 4.0835 6.5625H8.16683C8.406 6.5625 8.60433 6.76083 8.60433 7C8.60433 7.23917 8.406 7.4375 8.16683 7.4375Z" fill="#F9B233"/>
</svg>
