<svg width="18" height="18" viewBox="0 0 18 18" fill="none" xmlns="http://www.w3.org/2000/svg">
<path opacity="0.4" d="M9 16.5C13.1421 16.5 16.5 13.1421 16.5 9C16.5 4.85786 13.1421 1.5 9 1.5C4.85786 1.5 1.5 4.85786 1.5 9C1.5 13.1421 4.85786 16.5 9 16.5Z" fill="#767676"/>
<path d="M9 10.3125C9.3075 10.3125 9.5625 10.0575 9.5625 9.75V6C9.5625 5.6925 9.3075 5.4375 9 5.4375C8.6925 5.4375 8.4375 5.6925 8.4375 6V9.75C8.4375 10.0575 8.6925 10.3125 9 10.3125Z" fill="#767676"/>
<path d="M9.69 11.7149C9.6525 11.6249 9.6 11.5424 9.5325 11.4674C9.4575 11.3999 9.375 11.3474 9.285 11.3099C9.105 11.2349 8.895 11.2349 8.715 11.3099C8.625 11.3474 8.5425 11.3999 8.4675 11.4674C8.4 11.5424 8.3475 11.6249 8.31 11.7149C8.2725 11.8049 8.25 11.9024 8.25 11.9999C8.25 12.0974 8.2725 12.1949 8.31 12.2849C8.3475 12.3824 8.4 12.4574 8.4675 12.5324C8.5425 12.5999 8.625 12.6524 8.715 12.6899C8.805 12.7274 8.9025 12.7499 9 12.7499C9.0975 12.7499 9.195 12.7274 9.285 12.6899C9.375 12.6524 9.4575 12.5999 9.5325 12.5324C9.6 12.4574 9.6525 12.3824 9.69 12.2849C9.7275 12.1949 9.75 12.0974 9.75 11.9999C9.75 11.9024 9.7275 11.8049 9.69 11.7149Z" fill="#767676"/>
</svg>
