<svg width="14" height="14" viewBox="0 0 14 14" fill="none" xmlns="http://www.w3.org/2000/svg">
<path opacity="0.4" d="M12.0281 4.92909C11.4156 2.23409 9.06481 1.02075 6.99981 1.02075C6.99981 1.02075 6.99981 1.02075 6.99398 1.02075C4.93481 1.02075 2.57814 2.22825 1.96564 4.92325C1.28314 7.93325 3.12648 10.4824 4.79481 12.0866C5.41314 12.6816 6.20648 12.9791 6.99981 12.9791C7.79314 12.9791 8.58648 12.6816 9.19898 12.0866C10.8673 10.4824 12.7106 7.93909 12.0281 4.92909Z" fill="#F9B233"/>
<path d="M7.0001 7.85176C8.01492 7.85176 8.8376 7.02908 8.8376 6.01426C8.8376 4.99943 8.01492 4.17676 7.0001 4.17676C5.98527 4.17676 5.1626 4.99943 5.1626 6.01426C5.1626 7.02908 5.98527 7.85176 7.0001 7.85176Z" fill="#F9B233"/>
</svg>
