<svg width="32" height="32" viewBox="0 0 32 32" fill="none" xmlns="http://www.w3.org/2000/svg">
<path opacity="0.4" d="M12 9.60008V22.3867C12 26.6667 14.6667 29.3334 18.9333 29.3334H22.3867C26.6533 29.3334 29.32 26.6667 29.32 22.4001V9.60008C29.3333 5.33341 26.6667 2.66675 22.4 2.66675H18.9333C14.6667 2.66675 12 5.33341 12 9.60008Z" fill="#F9B233"/>
<path d="M16.5732 10.8269L21.0398 15.2935C21.4265 15.6802 21.4265 16.3202 21.0398 16.7069L16.5732 21.1735C16.1865 21.5602 15.5465 21.5602 15.1598 21.1735C14.7732 20.7869 14.7732 20.1469 15.1598 19.7602L17.9198 17.0002H3.6665C3.11984 17.0002 2.6665 16.5469 2.6665 16.0002C2.6665 15.4535 3.11984 15.0002 3.6665 15.0002H17.9198L15.1598 12.2402C14.9598 12.0402 14.8665 11.7869 14.8665 11.5335C14.8665 11.2802 14.9598 11.0269 15.1598 10.8269C15.5465 10.4269 16.1732 10.4269 16.5732 10.8269Z" fill="#F9B233"/>
</svg>
