<svg width="18" height="18" viewBox="0 0 18 18" fill="none" xmlns="http://www.w3.org/2000/svg">
<path opacity="0.4" d="M6.41979 2.50488V13.2524C6.16479 13.2599 5.90979 13.3199 5.72229 13.4324L3.95979 14.4374C2.72979 15.1424 1.71729 14.5574 1.71729 13.1324V5.83488C1.71729 5.36238 2.05479 4.77738 2.47479 4.53738L5.72229 2.67738C5.90979 2.57238 6.16479 2.51238 6.41979 2.50488Z" fill="#767676"/>
<path d="M11.7974 4.74745V15.495C11.5349 15.5025 11.2799 15.4575 11.0774 15.36L7.13992 13.3875C6.93742 13.29 6.68242 13.245 6.41992 13.2525V2.50495C6.68242 2.49745 6.93742 2.54245 7.13992 2.63995L11.0774 4.61245C11.2799 4.70995 11.5349 4.75495 11.7974 4.74745Z" fill="#767676"/>
<path opacity="0.4" d="M16.4999 4.86755V12.165C16.4999 12.6375 16.1624 13.2225 15.7424 13.4625L12.4949 15.3225C12.3074 15.4275 12.0524 15.4875 11.7974 15.495V4.74755C12.0524 4.74005 12.3074 4.68005 12.4949 4.56755L14.2574 3.56255C15.4874 2.85755 16.4999 3.44255 16.4999 4.86755Z" fill="#767676"/>
</svg>
