<svg width="40" height="40" viewBox="0 0 40 40" fill="none" xmlns="http://www.w3.org/2000/svg">
<path opacity="0.4" d="M28.334 12.9166C28.0173 12.9166 27.7007 12.7999 27.4507 12.5499C26.9673 12.0666 26.9673 11.2666 27.4507 10.7833L30.8673 7.36658C27.934 4.86658 24.1507 3.33325 20.0007 3.33325C10.8007 3.33325 3.33398 10.7999 3.33398 19.9999C3.33398 29.1999 10.8007 36.6666 20.0007 36.6666C29.2007 36.6666 36.6673 29.1999 36.6673 19.9999C36.6673 15.8499 35.134 12.0666 32.634 9.13326L29.2173 12.5499C28.9673 12.7999 28.6507 12.9166 28.334 12.9166Z" fill="#F9B233"/>
<path d="M22.9173 19.7L21.2507 19.1167V15.4167H21.384C22.234 15.4167 22.9173 16.1667 22.9173 17.0833C22.9173 17.7667 23.484 18.3333 24.1673 18.3333C24.8507 18.3333 25.4173 17.7667 25.4173 17.0833C25.4173 14.7833 23.6173 12.9167 21.384 12.9167H21.2507V12.5C21.2507 11.8167 20.684 11.25 20.0007 11.25C19.3173 11.25 18.7507 11.8167 18.7507 12.5V12.9167H18.2507C16.234 12.9167 14.584 14.6167 14.584 16.7167C14.584 19.15 16.0007 19.9333 17.084 20.3167L18.7507 20.9V24.6H18.6173C17.7673 24.6 17.084 23.85 17.084 22.9333C17.084 22.25 16.5173 21.6833 15.834 21.6833C15.1507 21.6833 14.584 22.25 14.584 22.9333C14.584 25.2333 16.384 27.1 18.6173 27.1H18.7507V27.5167C18.7507 28.2 19.3173 28.7667 20.0007 28.7667C20.684 28.7667 21.2507 28.2 21.2507 27.5167V27.1H21.7506C23.7673 27.1 25.4173 25.4 25.4173 23.3C25.4173 20.85 24.0007 20.0667 22.9173 19.7ZM17.9006 17.9333C17.334 17.7333 17.084 17.6167 17.084 16.7C17.084 15.9833 17.6173 15.4 18.2507 15.4H18.7507V18.2167L17.9006 17.9333ZM21.7506 24.5833H21.2507V21.7667L22.1007 22.0667C22.6673 22.2667 22.9173 22.3833 22.9173 23.3C22.9173 24 22.384 24.5833 21.7506 24.5833Z" fill="#F9B233"/>
<path d="M37.8158 2.84999C37.6824 2.54999 37.4491 2.29999 37.1324 2.16666C36.9824 2.09999 36.8158 2.06665 36.6491 2.06665H29.9824C29.2991 2.06665 28.7324 2.63332 28.7324 3.31665C28.7324 3.99998 29.2991 4.56665 29.9824 4.56665H33.6324L30.8491 7.34999C31.4825 7.89999 32.0658 8.48332 32.6158 9.11666L35.3991 6.33333V9.99999C35.3991 10.6833 35.9658 11.25 36.6491 11.25C37.3324 11.25 37.8991 10.6833 37.8991 9.99999V3.33332C37.9158 3.16665 37.8824 3.01665 37.8158 2.84999Z" fill="#F9B233"/>
</svg>
