<svg width="36" height="36" viewBox="0 0 36 36" fill="none" xmlns="http://www.w3.org/2000/svg">
<path opacity="0.4" d="M18 33C26.2843 33 33 26.2843 33 18C33 9.71573 26.2843 3 18 3C9.71573 3 3 9.71573 3 18C3 26.2843 9.71573 33 18 33Z" fill="#818181"/>
<path d="M25.1399 17.8951C24.5099 17.7901 23.9548 18.2402 23.8648 18.8552C23.6848 20.1602 23.0998 21.3301 22.1998 22.2301C20.1298 24.3001 16.9199 24.5102 14.5949 22.9052H15.7199C16.3349 22.9052 16.8449 22.3952 16.8449 21.7802C16.8449 21.1652 16.3349 20.6552 15.7199 20.6552H11.7148C11.0998 20.6552 10.5898 21.1652 10.5898 21.7802V25.7851C10.5898 26.4001 11.0998 26.9101 11.7148 26.9101C12.3298 26.9101 12.8398 26.4001 12.8398 25.7851V24.3751C14.3398 25.5901 16.1548 26.2351 17.9848 26.2351C20.0848 26.2351 22.1848 25.4402 23.7898 23.8352C25.0348 22.5902 25.8299 20.9851 26.0849 19.1851C26.1899 18.5401 25.7549 17.9701 25.1399 17.8951Z" fill="#818181"/>
<path d="M11.0092 18.12C11.5642 18.12 12.0441 17.715 12.1191 17.16C12.2991 15.855 12.8842 14.685 13.7842 13.785C15.8542 11.715 19.0642 11.505 21.3892 13.11H20.2642C19.6492 13.11 19.1392 13.62 19.1392 14.235C19.1392 14.85 19.6492 15.36 20.2642 15.36H24.2692C24.8842 15.36 25.3942 14.85 25.3942 14.235V10.23C25.3942 9.61498 24.8842 9.10498 24.2692 9.10498C23.6542 9.10498 23.1442 9.61498 23.1442 10.23V11.64C19.9192 9.02998 15.1942 9.19496 12.2092 12.18C10.9642 13.425 10.1691 15.0299 9.91414 16.8299C9.82414 17.4449 10.2592 18.015 10.8742 18.105C10.9042 18.12 10.9642 18.12 11.0092 18.12Z" fill="#818181"/>
</svg>
