<svg width="24" height="24" viewBox="0 0 24 24" fill="none" xmlns="http://www.w3.org/2000/svg">
<path opacity="0.4" d="M11.0095 20.02C15.9856 20.02 20.0195 15.9861 20.0195 11.01C20.0195 6.03391 15.9856 2 11.0095 2C6.03343 2 1.99951 6.03391 1.99951 11.01C1.99951 15.9861 6.03343 20.02 11.0095 20.02Z" fill="black"/>
<path d="M21.9901 18.95C21.6601 18.34 20.9601 18 20.0201 18C19.3101 18 18.7001 18.29 18.3401 18.79C17.9801 19.29 17.9001 19.96 18.1201 20.63C18.5501 21.93 19.3001 22.22 19.7101 22.27C19.7701 22.28 19.8301 22.28 19.9001 22.28C20.3401 22.28 21.0201 22.09 21.6801 21.1C22.2101 20.33 22.3101 19.56 21.9901 18.95Z" fill="black"/>
</svg>
