<svg width="18" height="18" viewBox="0 0 18 18" fill="none" xmlns="http://www.w3.org/2000/svg">
<path opacity="0.4" d="M5.33231 4.46996L12.0973 2.21246C15.1348 1.19996 16.7848 2.85746 15.7798 5.89496L13.5223 12.66C12.0073 17.2125 9.5173 17.2125 8.00231 12.66L7.33481 10.65L5.32481 9.98246C0.779805 8.47496 0.779805 5.99246 5.33231 4.46996Z" fill="#767676"/>
<path d="M9.08984 8.72242L11.9473 5.85742L9.08984 8.72242Z" fill="#767676"/>
<path d="M9.08992 9.285C8.94742 9.285 8.80492 9.2325 8.69242 9.12C8.47492 8.9025 8.47492 8.5425 8.69242 8.325L11.5424 5.46C11.7599 5.2425 12.1199 5.2425 12.3374 5.46C12.5549 5.6775 12.5549 6.0375 12.3374 6.255L9.48742 9.12C9.37492 9.225 9.23242 9.285 9.08992 9.285Z" fill="#767676"/>
</svg>
