<svg width="18" height="18" viewBox="0 0 18 18" fill="none" xmlns="http://www.w3.org/2000/svg">
<path opacity="0.4" d="M12.75 15.375H5.25C3 15.375 1.5 14.25 1.5 11.625V6.375C1.5 3.75 3 2.625 5.25 2.625H12.75C15 2.625 16.5 3.75 16.5 6.375V11.625C16.5 14.25 15 15.375 12.75 15.375Z" fill="#F9B233"/>
<path d="M9.00008 9.65247C8.37008 9.65247 7.73258 9.45748 7.24508 9.05998L4.89758 7.18498C4.65758 6.98998 4.61258 6.63748 4.80758 6.39748C5.00258 6.15748 5.35508 6.11248 5.59508 6.30748L7.94257 8.18248C8.51257 8.63998 9.48007 8.63998 10.0501 8.18248L12.3976 6.30748C12.6376 6.11248 12.9976 6.14998 13.1851 6.39748C13.3801 6.63748 13.3426 6.99748 13.0951 7.18498L10.7476 9.05998C10.2676 9.45748 9.63008 9.65247 9.00008 9.65247Z" fill="#F9B233"/>
</svg>
