<svg width="40" height="40" viewBox="0 0 40 40" fill="none" xmlns="http://www.w3.org/2000/svg">
<path opacity="0.4" d="M19.9997 36.6666C29.2044 36.6666 36.6663 29.2047 36.6663 19.9999C36.6663 10.7952 29.2044 3.33325 19.9997 3.33325C10.7949 3.33325 3.33301 10.7952 3.33301 19.9999C3.33301 29.2047 10.7949 36.6666 19.9997 36.6666Z" fill="#767676"/>
<path d="M17.6334 25.9666C17.3001 25.9666 16.9834 25.8333 16.7501 25.5999L12.0334 20.8833C11.5501 20.3999 11.5501 19.5999 12.0334 19.1166C12.5167 18.6333 13.3167 18.6333 13.8001 19.1166L17.6334 22.9499L26.2001 14.3833C26.6834 13.8999 27.4834 13.8999 27.9667 14.3833C28.4501 14.8666 28.4501 15.6666 27.9667 16.1499L18.5167 25.5999C18.2834 25.8333 17.9667 25.9666 17.6334 25.9666Z" fill="#767676"/>
</svg>
