<svg width="40" height="40" viewBox="0 0 40 40" fill="none" xmlns="http://www.w3.org/2000/svg">
<path opacity="0.4" d="M36.6663 13.0166V26.9833C36.6663 31.6666 34.5163 34.8832 30.733 36.0999C29.633 36.4832 28.3663 36.6666 26.983 36.6666H13.0163C11.633 36.6666 10.3663 36.4832 9.26634 36.0999C5.483 34.8832 3.33301 31.6666 3.33301 26.9833V13.0166C3.33301 6.94991 6.94967 3.33325 13.0163 3.33325H26.983C33.0497 3.33325 36.6663 6.94991 36.6663 13.0166Z" fill="#F9B233"/>
<path d="M30.7333 36.0999C29.6333 36.4832 28.3666 36.6666 26.9833 36.6666H13.0166C11.6333 36.6666 10.3666 36.4832 9.2666 36.0999C9.84993 31.6999 14.4499 28.2832 19.9999 28.2832C25.5499 28.2832 30.1499 31.6999 30.7333 36.0999Z" fill="#F9B233"/>
<path d="M25.9665 19.2999C25.9665 22.5999 23.2999 25.2832 19.9999 25.2832C16.6999 25.2832 14.0332 22.5999 14.0332 19.2999C14.0332 15.9999 16.6999 13.3333 19.9999 13.3333C23.2999 13.3333 25.9665 15.9999 25.9665 19.2999Z" fill="#F9B233"/>
</svg>
